<mxfile host="app.diagrams.net" agent="Mozilla/5.0 (X11; Linux x86_64) AppleWebKit/537.36 (KHTML, like Gecko) Chrome/132.0.0.0 Safari/537.36" version="26.0.10">
  <diagram name="Page-1" id="X1aEtVZfNc0Atdl5HMRr">
    <mxGraphModel dx="2996" dy="841" grid="1" gridSize="10" guides="1" tooltips="1" connect="1" arrows="1" fold="1" page="1" pageScale="1" pageWidth="850" pageHeight="1100" math="0" shadow="0">
      <root>
        <mxCell id="0" />
        <mxCell id="1" parent="0" />
        <mxCell id="6J5hbu4WQA81EiAuZpl6-140" value="User" style="swimlane;fontStyle=1;childLayout=stackLayout;horizontal=1;startSize=30;horizontalStack=0;resizeParent=1;resizeParentMax=0;resizeLast=0;collapsible=1;marginBottom=0;whiteSpace=wrap;html=1;linecap=round;linejoin=round;comic=0;enumerate=0;moveCells=0;treeMoving=0;resizeHeight=1;resizeWidth=1;fixDash=1;absoluteArcSize=0;textShadow=1;labelBorderColor=none;labelBackgroundColor=none;fontSize=14;verticalAlign=middle;fillColor=#f8cecc;strokeColor=#b85450;gradientColor=#ea6b66;gradientDirection=radial;glass=0;shadow=1;rounded=0;swimlaneLine=1;" parent="1" vertex="1">
          <mxGeometry x="40" y="310" width="190" height="390" as="geometry" />
        </mxCell>
        <mxCell id="6J5hbu4WQA81EiAuZpl6-141" value="&lt;u&gt;id&lt;/u&gt;" style="text;strokeColor=#b85450;fillColor=#f8cecc;align=center;verticalAlign=middle;spacingLeft=4;spacingRight=4;overflow=hidden;points=[[0,0.5],[1,0.5]];portConstraint=eastwest;rotatable=0;whiteSpace=wrap;html=1;glass=0;rounded=0;shadow=0;fillStyle=auto;gradientColor=none;fontStyle=0;horizontal=1;" parent="6J5hbu4WQA81EiAuZpl6-140" vertex="1">
          <mxGeometry y="30" width="190" height="30" as="geometry" />
        </mxCell>
        <mxCell id="6J5hbu4WQA81EiAuZpl6-142" value="first_name" style="text;strokeColor=#b85450;fillColor=#f8cecc;align=center;verticalAlign=middle;spacingLeft=4;spacingRight=4;overflow=hidden;points=[[0,0.5],[1,0.5]];portConstraint=eastwest;rotatable=0;whiteSpace=wrap;html=1;fontStyle=0;horizontal=1;" parent="6J5hbu4WQA81EiAuZpl6-140" vertex="1">
          <mxGeometry y="60" width="190" height="30" as="geometry" />
        </mxCell>
        <mxCell id="6J5hbu4WQA81EiAuZpl6-148" value="last_name" style="text;strokeColor=#b85450;fillColor=#f8cecc;align=center;verticalAlign=middle;spacingLeft=4;spacingRight=4;overflow=hidden;points=[[0,0.5],[1,0.5]];portConstraint=eastwest;rotatable=0;whiteSpace=wrap;html=1;fontStyle=0;horizontal=1;" parent="6J5hbu4WQA81EiAuZpl6-140" vertex="1">
          <mxGeometry y="90" width="190" height="30" as="geometry" />
        </mxCell>
        <mxCell id="6J5hbu4WQA81EiAuZpl6-149" value="username" style="text;strokeColor=#b85450;fillColor=#f8cecc;align=center;verticalAlign=middle;spacingLeft=4;spacingRight=4;overflow=hidden;points=[[0,0.5],[1,0.5]];portConstraint=eastwest;rotatable=0;whiteSpace=wrap;html=1;fontStyle=0;horizontal=1;" parent="6J5hbu4WQA81EiAuZpl6-140" vertex="1">
          <mxGeometry y="120" width="190" height="30" as="geometry" />
        </mxCell>
        <mxCell id="6J5hbu4WQA81EiAuZpl6-150" value="email" style="text;strokeColor=#b85450;fillColor=#f8cecc;align=center;verticalAlign=middle;spacingLeft=4;spacingRight=4;overflow=hidden;points=[[0,0.5],[1,0.5]];portConstraint=eastwest;rotatable=0;whiteSpace=wrap;html=1;fontStyle=0;horizontal=1;" parent="6J5hbu4WQA81EiAuZpl6-140" vertex="1">
          <mxGeometry y="150" width="190" height="30" as="geometry" />
        </mxCell>
        <mxCell id="6J5hbu4WQA81EiAuZpl6-151" value="phone" style="text;strokeColor=#b85450;fillColor=#f8cecc;align=center;verticalAlign=middle;spacingLeft=4;spacingRight=4;overflow=hidden;points=[[0,0.5],[1,0.5]];portConstraint=eastwest;rotatable=0;whiteSpace=wrap;html=1;fontStyle=0;horizontal=1;" parent="6J5hbu4WQA81EiAuZpl6-140" vertex="1">
          <mxGeometry y="180" width="190" height="30" as="geometry" />
        </mxCell>
        <mxCell id="6J5hbu4WQA81EiAuZpl6-152" value="password" style="text;strokeColor=#b85450;fillColor=#f8cecc;align=center;verticalAlign=middle;spacingLeft=4;spacingRight=4;overflow=hidden;points=[[0,0.5],[1,0.5]];portConstraint=eastwest;rotatable=0;whiteSpace=wrap;html=1;fontStyle=0;horizontal=1;" parent="6J5hbu4WQA81EiAuZpl6-140" vertex="1">
          <mxGeometry y="210" width="190" height="30" as="geometry" />
        </mxCell>
        <mxCell id="6J5hbu4WQA81EiAuZpl6-153" value="room_id (FK)" style="text;strokeColor=#b85450;fillColor=#f8cecc;align=center;verticalAlign=middle;spacingLeft=4;spacingRight=4;overflow=hidden;points=[[0,0.5],[1,0.5]];portConstraint=eastwest;rotatable=0;whiteSpace=wrap;html=1;fontStyle=0;horizontal=1;" parent="6J5hbu4WQA81EiAuZpl6-140" vertex="1">
          <mxGeometry y="240" width="190" height="30" as="geometry" />
        </mxCell>
        <mxCell id="6J5hbu4WQA81EiAuZpl6-163" value="profile_pic_id (FK)" style="text;strokeColor=#b85450;fillColor=#f8cecc;align=center;verticalAlign=middle;spacingLeft=4;spacingRight=4;overflow=hidden;points=[[0,0.5],[1,0.5]];portConstraint=eastwest;rotatable=0;whiteSpace=wrap;html=1;fontStyle=0;horizontal=1;" parent="6J5hbu4WQA81EiAuZpl6-140" vertex="1">
          <mxGeometry y="270" width="190" height="30" as="geometry" />
        </mxCell>
        <mxCell id="6J5hbu4WQA81EiAuZpl6-164" value="role_id (FK)" style="text;strokeColor=#b85450;fillColor=#f8cecc;align=center;verticalAlign=middle;spacingLeft=4;spacingRight=4;overflow=hidden;points=[[0,0.5],[1,0.5]];portConstraint=eastwest;rotatable=0;whiteSpace=wrap;html=1;fontStyle=0;horizontal=1;" parent="6J5hbu4WQA81EiAuZpl6-140" vertex="1">
          <mxGeometry y="300" width="190" height="30" as="geometry" />
        </mxCell>
        <mxCell id="6J5hbu4WQA81EiAuZpl6-173" value="wallet_balance" style="text;strokeColor=#b85450;fillColor=#f8cecc;align=center;verticalAlign=middle;spacingLeft=4;spacingRight=4;overflow=hidden;points=[[0,0.5],[1,0.5]];portConstraint=eastwest;rotatable=0;whiteSpace=wrap;html=1;fontStyle=0;horizontal=1;" parent="6J5hbu4WQA81EiAuZpl6-140" vertex="1">
          <mxGeometry y="330" width="190" height="30" as="geometry" />
        </mxCell>
        <mxCell id="6J5hbu4WQA81EiAuZpl6-267" value="joined_at" style="text;strokeColor=#b85450;fillColor=#f8cecc;align=center;verticalAlign=middle;spacingLeft=4;spacingRight=4;overflow=hidden;points=[[0,0.5],[1,0.5]];portConstraint=eastwest;rotatable=0;whiteSpace=wrap;html=1;fontStyle=0;horizontal=1;" parent="6J5hbu4WQA81EiAuZpl6-140" vertex="1">
          <mxGeometry y="360" width="190" height="30" as="geometry" />
        </mxCell>
        <mxCell id="6J5hbu4WQA81EiAuZpl6-249" style="edgeStyle=orthogonalEdgeStyle;rounded=0;orthogonalLoop=1;jettySize=auto;html=1;fontFamily=Helvetica;fontSize=12;fontColor=default;fontStyle=1;labelBorderColor=none;labelBackgroundColor=none;strokeWidth=2;fillColor=#d5e8d4;strokeColor=#82b366;gradientColor=#97d077;curved=1;" parent="1" source="6J5hbu4WQA81EiAuZpl6-154" target="6J5hbu4WQA81EiAuZpl6-246" edge="1">
          <mxGeometry relative="1" as="geometry">
            <Array as="points">
              <mxPoint x="-280" y="355" />
              <mxPoint x="-280" y="1205" />
            </Array>
          </mxGeometry>
        </mxCell>
        <mxCell id="6J5hbu4WQA81EiAuZpl6-154" value="Room" style="swimlane;fontStyle=1;childLayout=stackLayout;horizontal=1;startSize=30;horizontalStack=0;resizeParent=1;resizeParentMax=0;resizeLast=0;collapsible=1;marginBottom=0;whiteSpace=wrap;html=1;linecap=round;linejoin=round;comic=0;enumerate=0;moveCells=0;treeMoving=0;resizeHeight=1;resizeWidth=1;fixDash=1;absoluteArcSize=0;textShadow=1;labelBorderColor=none;labelBackgroundColor=none;fontSize=14;verticalAlign=middle;fillColor=#d5e8d4;strokeColor=#82b366;gradientDirection=radial;glass=0;shadow=1;rounded=0;swimlaneLine=1;gradientColor=#97d077;" parent="1" vertex="1">
          <mxGeometry x="-240" y="310" width="190" height="90" as="geometry" />
        </mxCell>
        <mxCell id="6J5hbu4WQA81EiAuZpl6-155" value="&lt;u&gt;id&lt;/u&gt;" style="text;strokeColor=#b85450;fillColor=#f8cecc;align=center;verticalAlign=middle;spacingLeft=4;spacingRight=4;overflow=hidden;points=[[0,0.5],[1,0.5]];portConstraint=eastwest;rotatable=0;whiteSpace=wrap;html=1;glass=0;rounded=0;shadow=0;fillStyle=auto;gradientColor=none;fontStyle=0;horizontal=1;" parent="6J5hbu4WQA81EiAuZpl6-154" vertex="1">
          <mxGeometry y="30" width="190" height="30" as="geometry" />
        </mxCell>
        <mxCell id="6J5hbu4WQA81EiAuZpl6-156" value="name" style="text;strokeColor=#b85450;fillColor=#f8cecc;align=center;verticalAlign=middle;spacingLeft=4;spacingRight=4;overflow=hidden;points=[[0,0.5],[1,0.5]];portConstraint=eastwest;rotatable=0;whiteSpace=wrap;html=1;fontStyle=0;horizontal=1;" parent="6J5hbu4WQA81EiAuZpl6-154" vertex="1">
          <mxGeometry y="60" width="190" height="30" as="geometry" />
        </mxCell>
        <mxCell id="6J5hbu4WQA81EiAuZpl6-165" style="edgeStyle=orthogonalEdgeStyle;rounded=0;orthogonalLoop=1;jettySize=auto;html=1;entryX=1;entryY=0.5;entryDx=0;entryDy=0;fontFamily=Helvetica;fontSize=12;fontColor=default;fontStyle=1;labelBorderColor=none;labelBackgroundColor=none;elbow=vertical;curved=1;startArrow=classic;startFill=0;endArrow=none;endFill=1;fillColor=#d5e8d4;strokeColor=#82b366;gradientColor=#97d077;strokeWidth=2;" parent="1" source="6J5hbu4WQA81EiAuZpl6-153" target="6J5hbu4WQA81EiAuZpl6-154" edge="1">
          <mxGeometry relative="1" as="geometry" />
        </mxCell>
        <mxCell id="6J5hbu4WQA81EiAuZpl6-166" value="Profile_Pic" style="swimlane;fontStyle=1;childLayout=stackLayout;horizontal=1;startSize=30;horizontalStack=0;resizeParent=1;resizeParentMax=0;resizeLast=0;collapsible=1;marginBottom=0;whiteSpace=wrap;html=1;linecap=round;linejoin=round;comic=0;enumerate=0;moveCells=0;treeMoving=0;resizeHeight=1;resizeWidth=1;fixDash=1;absoluteArcSize=0;textShadow=1;labelBorderColor=none;labelBackgroundColor=none;fontSize=14;verticalAlign=middle;fillColor=#dae8fc;strokeColor=#6c8ebf;gradientColor=#7ea6e0;gradientDirection=radial;glass=0;shadow=1;rounded=0;swimlaneLine=1;" parent="1" vertex="1">
          <mxGeometry x="-240" y="450" width="190" height="150" as="geometry" />
        </mxCell>
        <mxCell id="6J5hbu4WQA81EiAuZpl6-167" value="&lt;u&gt;id&lt;/u&gt;" style="text;strokeColor=#b85450;fillColor=#f8cecc;align=center;verticalAlign=middle;spacingLeft=4;spacingRight=4;overflow=hidden;points=[[0,0.5],[1,0.5]];portConstraint=eastwest;rotatable=0;whiteSpace=wrap;html=1;glass=0;rounded=0;shadow=0;fillStyle=auto;gradientColor=none;fontStyle=0;horizontal=1;" parent="6J5hbu4WQA81EiAuZpl6-166" vertex="1">
          <mxGeometry y="30" width="190" height="30" as="geometry" />
        </mxCell>
        <mxCell id="6J5hbu4WQA81EiAuZpl6-168" value="url" style="text;strokeColor=#b85450;fillColor=#f8cecc;align=center;verticalAlign=middle;spacingLeft=4;spacingRight=4;overflow=hidden;points=[[0,0.5],[1,0.5]];portConstraint=eastwest;rotatable=0;whiteSpace=wrap;html=1;fontStyle=0;horizontal=1;" parent="6J5hbu4WQA81EiAuZpl6-166" vertex="1">
          <mxGeometry y="60" width="190" height="30" as="geometry" />
        </mxCell>
        <mxCell id="6J5hbu4WQA81EiAuZpl6-169" value="user_id (FK)" style="text;strokeColor=#b85450;fillColor=#f8cecc;align=center;verticalAlign=middle;spacingLeft=4;spacingRight=4;overflow=hidden;points=[[0,0.5],[1,0.5]];portConstraint=eastwest;rotatable=0;whiteSpace=wrap;html=1;fontStyle=0;horizontal=1;" parent="6J5hbu4WQA81EiAuZpl6-166" vertex="1">
          <mxGeometry y="90" width="190" height="30" as="geometry" />
        </mxCell>
        <mxCell id="6J5hbu4WQA81EiAuZpl6-265" value="uploaded_at" style="text;strokeColor=#b85450;fillColor=#f8cecc;align=center;verticalAlign=middle;spacingLeft=4;spacingRight=4;overflow=hidden;points=[[0,0.5],[1,0.5]];portConstraint=eastwest;rotatable=0;whiteSpace=wrap;html=1;fontStyle=0;horizontal=1;" parent="6J5hbu4WQA81EiAuZpl6-166" vertex="1">
          <mxGeometry y="120" width="190" height="30" as="geometry" />
        </mxCell>
        <mxCell id="6J5hbu4WQA81EiAuZpl6-171" style="edgeStyle=entityRelationEdgeStyle;rounded=0;orthogonalLoop=1;jettySize=auto;html=1;entryX=0;entryY=0.5;entryDx=0;entryDy=0;fontFamily=Helvetica;fontSize=12;fontColor=default;fontStyle=1;labelBorderColor=none;labelBackgroundColor=none;fillColor=#e51400;strokeColor=#B20000;elbow=vertical;endArrow=none;startFill=1;startArrow=classic;strokeWidth=2;" parent="1" source="6J5hbu4WQA81EiAuZpl6-169" target="6J5hbu4WQA81EiAuZpl6-141" edge="1">
          <mxGeometry relative="1" as="geometry" />
        </mxCell>
        <mxCell id="6J5hbu4WQA81EiAuZpl6-172" style="edgeStyle=orthogonalEdgeStyle;rounded=0;orthogonalLoop=1;jettySize=auto;html=1;fontFamily=Helvetica;fontSize=12;fontColor=default;fontStyle=1;labelBorderColor=none;labelBackgroundColor=none;fillColor=#dae8fc;strokeColor=#6c8ebf;curved=1;strokeWidth=2;gradientColor=#7ea6e0;" parent="1" source="6J5hbu4WQA81EiAuZpl6-167" target="6J5hbu4WQA81EiAuZpl6-163" edge="1">
          <mxGeometry relative="1" as="geometry" />
        </mxCell>
        <mxCell id="6J5hbu4WQA81EiAuZpl6-175" value="Role" style="swimlane;fontStyle=1;childLayout=stackLayout;horizontal=1;startSize=30;horizontalStack=0;resizeParent=1;resizeParentMax=0;resizeLast=0;collapsible=1;marginBottom=0;whiteSpace=wrap;html=1;linecap=round;linejoin=round;comic=0;enumerate=0;moveCells=0;treeMoving=0;resizeHeight=1;resizeWidth=1;fixDash=1;absoluteArcSize=0;textShadow=1;labelBorderColor=none;labelBackgroundColor=none;fontSize=14;verticalAlign=middle;fillColor=#ffcd28;strokeColor=#d79b00;gradientDirection=radial;glass=0;shadow=1;rounded=0;swimlaneLine=1;gradientColor=#ffa500;" parent="1" vertex="1">
          <mxGeometry x="330" y="310" width="190" height="90" as="geometry" />
        </mxCell>
        <mxCell id="6J5hbu4WQA81EiAuZpl6-176" value="&lt;u&gt;id&lt;/u&gt;" style="text;strokeColor=#b85450;fillColor=#f8cecc;align=center;verticalAlign=middle;spacingLeft=4;spacingRight=4;overflow=hidden;points=[[0,0.5],[1,0.5]];portConstraint=eastwest;rotatable=0;whiteSpace=wrap;html=1;glass=0;rounded=0;shadow=0;fillStyle=auto;gradientColor=none;fontStyle=0;horizontal=1;" parent="6J5hbu4WQA81EiAuZpl6-175" vertex="1">
          <mxGeometry y="30" width="190" height="30" as="geometry" />
        </mxCell>
        <mxCell id="6J5hbu4WQA81EiAuZpl6-177" value="name" style="text;strokeColor=#b85450;fillColor=#f8cecc;align=center;verticalAlign=middle;spacingLeft=4;spacingRight=4;overflow=hidden;points=[[0,0.5],[1,0.5]];portConstraint=eastwest;rotatable=0;whiteSpace=wrap;html=1;fontStyle=0;horizontal=1;" parent="6J5hbu4WQA81EiAuZpl6-175" vertex="1">
          <mxGeometry y="60" width="190" height="30" as="geometry" />
        </mxCell>
        <mxCell id="6J5hbu4WQA81EiAuZpl6-178" style="edgeStyle=orthogonalEdgeStyle;rounded=0;orthogonalLoop=1;jettySize=auto;html=1;entryX=1;entryY=0.5;entryDx=0;entryDy=0;fontFamily=Helvetica;fontSize=12;fontColor=default;fontStyle=1;labelBorderColor=none;labelBackgroundColor=none;curved=1;fillColor=#ffcd28;gradientColor=#ffa500;strokeColor=#d79b00;strokeWidth=2;" parent="1" source="6J5hbu4WQA81EiAuZpl6-176" target="6J5hbu4WQA81EiAuZpl6-164" edge="1">
          <mxGeometry relative="1" as="geometry" />
        </mxCell>
        <mxCell id="6J5hbu4WQA81EiAuZpl6-181" value="Category" style="swimlane;fontStyle=1;childLayout=stackLayout;horizontal=1;startSize=30;horizontalStack=0;resizeParent=1;resizeParentMax=0;resizeLast=0;collapsible=1;marginBottom=0;whiteSpace=wrap;html=1;linecap=round;linejoin=round;comic=0;enumerate=0;moveCells=0;treeMoving=0;resizeHeight=1;resizeWidth=1;fixDash=1;absoluteArcSize=0;textShadow=1;labelBorderColor=none;labelBackgroundColor=none;fontSize=14;verticalAlign=middle;fillColor=#d5e8d4;strokeColor=#82b366;gradientColor=#97d077;gradientDirection=radial;glass=0;shadow=1;rounded=0;swimlaneLine=1;" parent="1" vertex="1">
          <mxGeometry x="-230" y="720" width="190" height="90" as="geometry" />
        </mxCell>
        <mxCell id="6J5hbu4WQA81EiAuZpl6-182" value="&lt;u&gt;id&lt;/u&gt;" style="text;strokeColor=#b85450;fillColor=#f8cecc;align=center;verticalAlign=middle;spacingLeft=4;spacingRight=4;overflow=hidden;points=[[0,0.5],[1,0.5]];portConstraint=eastwest;rotatable=0;whiteSpace=wrap;html=1;glass=0;rounded=0;shadow=0;fillStyle=auto;gradientColor=none;fontStyle=0;horizontal=1;" parent="6J5hbu4WQA81EiAuZpl6-181" vertex="1">
          <mxGeometry y="30" width="190" height="30" as="geometry" />
        </mxCell>
        <mxCell id="6J5hbu4WQA81EiAuZpl6-183" value="name" style="text;strokeColor=#b85450;fillColor=#f8cecc;align=center;verticalAlign=middle;spacingLeft=4;spacingRight=4;overflow=hidden;points=[[0,0.5],[1,0.5]];portConstraint=eastwest;rotatable=0;whiteSpace=wrap;html=1;fontStyle=0;horizontal=1;" parent="6J5hbu4WQA81EiAuZpl6-181" vertex="1">
          <mxGeometry y="60" width="190" height="30" as="geometry" />
        </mxCell>
        <mxCell id="6J5hbu4WQA81EiAuZpl6-193" value="Product" style="swimlane;fontStyle=1;childLayout=stackLayout;horizontal=1;startSize=30;horizontalStack=0;resizeParent=1;resizeParentMax=0;resizeLast=0;collapsible=1;marginBottom=0;whiteSpace=wrap;html=1;linecap=round;linejoin=round;comic=0;enumerate=0;moveCells=0;treeMoving=0;resizeHeight=1;resizeWidth=1;fixDash=1;absoluteArcSize=0;textShadow=1;labelBorderColor=none;labelBackgroundColor=none;fontSize=14;verticalAlign=middle;fillColor=#f8cecc;strokeColor=#b85450;gradientColor=#ea6b66;gradientDirection=radial;glass=0;shadow=1;rounded=0;swimlaneLine=1;" parent="1" vertex="1">
          <mxGeometry x="40" y="720" width="190" height="210" as="geometry" />
        </mxCell>
        <mxCell id="6J5hbu4WQA81EiAuZpl6-194" value="&lt;u&gt;id&lt;/u&gt;" style="text;strokeColor=#b85450;fillColor=#f8cecc;align=center;verticalAlign=middle;spacingLeft=4;spacingRight=4;overflow=hidden;points=[[0,0.5],[1,0.5]];portConstraint=eastwest;rotatable=0;whiteSpace=wrap;html=1;glass=0;rounded=0;shadow=0;fillStyle=auto;gradientColor=none;fontStyle=0;horizontal=1;" parent="6J5hbu4WQA81EiAuZpl6-193" vertex="1">
          <mxGeometry y="30" width="190" height="30" as="geometry" />
        </mxCell>
        <mxCell id="6J5hbu4WQA81EiAuZpl6-195" value="name" style="text;strokeColor=#b85450;fillColor=#f8cecc;align=center;verticalAlign=middle;spacingLeft=4;spacingRight=4;overflow=hidden;points=[[0,0.5],[1,0.5]];portConstraint=eastwest;rotatable=0;whiteSpace=wrap;html=1;fontStyle=0;horizontal=1;" parent="6J5hbu4WQA81EiAuZpl6-193" vertex="1">
          <mxGeometry y="60" width="190" height="30" as="geometry" />
        </mxCell>
        <mxCell id="6J5hbu4WQA81EiAuZpl6-196" value="price" style="text;strokeColor=#b85450;fillColor=#f8cecc;align=center;verticalAlign=middle;spacingLeft=4;spacingRight=4;overflow=hidden;points=[[0,0.5],[1,0.5]];portConstraint=eastwest;rotatable=0;whiteSpace=wrap;html=1;fontStyle=0;horizontal=1;" parent="6J5hbu4WQA81EiAuZpl6-193" vertex="1">
          <mxGeometry y="90" width="190" height="30" as="geometry" />
        </mxCell>
        <mxCell id="6J5hbu4WQA81EiAuZpl6-197" value="product_pic_id (FK)" style="text;strokeColor=#b85450;fillColor=#f8cecc;align=center;verticalAlign=middle;spacingLeft=4;spacingRight=4;overflow=hidden;points=[[0,0.5],[1,0.5]];portConstraint=eastwest;rotatable=0;whiteSpace=wrap;html=1;fontStyle=0;horizontal=1;" parent="6J5hbu4WQA81EiAuZpl6-193" vertex="1">
          <mxGeometry y="120" width="190" height="30" as="geometry" />
        </mxCell>
        <mxCell id="6J5hbu4WQA81EiAuZpl6-198" value="category_id (FK)" style="text;strokeColor=#b85450;fillColor=#f8cecc;align=center;verticalAlign=middle;spacingLeft=4;spacingRight=4;overflow=hidden;points=[[0,0.5],[1,0.5]];portConstraint=eastwest;rotatable=0;whiteSpace=wrap;html=1;fontStyle=0;horizontal=1;" parent="6J5hbu4WQA81EiAuZpl6-193" vertex="1">
          <mxGeometry y="150" width="190" height="30" as="geometry" />
        </mxCell>
        <mxCell id="6J5hbu4WQA81EiAuZpl6-199" value="status" style="text;strokeColor=#b85450;fillColor=#f8cecc;align=center;verticalAlign=middle;spacingLeft=4;spacingRight=4;overflow=hidden;points=[[0,0.5],[1,0.5]];portConstraint=eastwest;rotatable=0;whiteSpace=wrap;html=1;fontStyle=0;horizontal=1;" parent="6J5hbu4WQA81EiAuZpl6-193" vertex="1">
          <mxGeometry y="180" width="190" height="30" as="geometry" />
        </mxCell>
        <mxCell id="6J5hbu4WQA81EiAuZpl6-205" value="Product_Pic" style="swimlane;fontStyle=1;childLayout=stackLayout;horizontal=1;startSize=30;horizontalStack=0;resizeParent=1;resizeParentMax=0;resizeLast=0;collapsible=1;marginBottom=0;whiteSpace=wrap;html=1;linecap=round;linejoin=round;comic=0;enumerate=0;moveCells=0;treeMoving=0;resizeHeight=1;resizeWidth=1;fixDash=1;absoluteArcSize=0;textShadow=1;labelBorderColor=none;labelBackgroundColor=none;fontSize=14;verticalAlign=middle;fillColor=#dae8fc;strokeColor=#6c8ebf;gradientColor=#7ea6e0;gradientDirection=radial;glass=0;shadow=1;rounded=0;swimlaneLine=1;" parent="1" vertex="1">
          <mxGeometry x="-230" y="860" width="190" height="90" as="geometry" />
        </mxCell>
        <mxCell id="6J5hbu4WQA81EiAuZpl6-206" value="&lt;u&gt;id&lt;/u&gt;" style="text;strokeColor=#b85450;fillColor=#f8cecc;align=center;verticalAlign=middle;spacingLeft=4;spacingRight=4;overflow=hidden;points=[[0,0.5],[1,0.5]];portConstraint=eastwest;rotatable=0;whiteSpace=wrap;html=1;glass=0;rounded=0;shadow=0;fillStyle=auto;gradientColor=none;fontStyle=0;horizontal=1;" parent="6J5hbu4WQA81EiAuZpl6-205" vertex="1">
          <mxGeometry y="30" width="190" height="30" as="geometry" />
        </mxCell>
        <mxCell id="6J5hbu4WQA81EiAuZpl6-207" value="url" style="text;strokeColor=#b85450;fillColor=#f8cecc;align=center;verticalAlign=middle;spacingLeft=4;spacingRight=4;overflow=hidden;points=[[0,0.5],[1,0.5]];portConstraint=eastwest;rotatable=0;whiteSpace=wrap;html=1;fontStyle=0;horizontal=1;" parent="6J5hbu4WQA81EiAuZpl6-205" vertex="1">
          <mxGeometry y="60" width="190" height="30" as="geometry" />
        </mxCell>
        <mxCell id="6J5hbu4WQA81EiAuZpl6-209" style="edgeStyle=orthogonalEdgeStyle;rounded=0;orthogonalLoop=1;jettySize=auto;html=1;entryX=0;entryY=0.5;entryDx=0;entryDy=0;fontFamily=Helvetica;fontSize=12;fontColor=default;fontStyle=1;labelBorderColor=none;labelBackgroundColor=none;fillColor=#dae8fc;gradientColor=#7ea6e0;strokeColor=#6c8ebf;strokeWidth=2;curved=1;" parent="1" source="6J5hbu4WQA81EiAuZpl6-206" target="6J5hbu4WQA81EiAuZpl6-197" edge="1">
          <mxGeometry relative="1" as="geometry" />
        </mxCell>
        <mxCell id="6J5hbu4WQA81EiAuZpl6-211" style="edgeStyle=orthogonalEdgeStyle;rounded=0;orthogonalLoop=1;jettySize=auto;html=1;entryX=0;entryY=0.5;entryDx=0;entryDy=0;fontFamily=Helvetica;fontSize=12;fontColor=default;fontStyle=1;labelBorderColor=none;labelBackgroundColor=none;curved=1;fillColor=#d5e8d4;gradientColor=#97d077;strokeColor=#82b366;strokeWidth=2;" parent="1" source="6J5hbu4WQA81EiAuZpl6-183" target="6J5hbu4WQA81EiAuZpl6-198" edge="1">
          <mxGeometry relative="1" as="geometry" />
        </mxCell>
        <mxCell id="6J5hbu4WQA81EiAuZpl6-244" style="edgeStyle=orthogonalEdgeStyle;rounded=0;orthogonalLoop=1;jettySize=auto;html=1;exitX=1;exitY=0.5;exitDx=0;exitDy=0;fontFamily=Helvetica;fontSize=12;fontColor=default;fontStyle=1;labelBorderColor=none;labelBackgroundColor=none;curved=1;strokeWidth=2;" parent="1" source="6J5hbu4WQA81EiAuZpl6-213" target="6J5hbu4WQA81EiAuZpl6-231" edge="1">
          <mxGeometry relative="1" as="geometry">
            <Array as="points">
              <mxPoint x="230" y="1060" />
              <mxPoint x="290" y="1060" />
              <mxPoint x="290" y="865" />
            </Array>
          </mxGeometry>
        </mxCell>
        <mxCell id="6J5hbu4WQA81EiAuZpl6-212" value="Order" style="swimlane;fontStyle=1;childLayout=stackLayout;horizontal=1;startSize=30;horizontalStack=0;resizeParent=1;resizeParentMax=0;resizeLast=0;collapsible=1;marginBottom=0;whiteSpace=wrap;html=1;linecap=round;linejoin=round;comic=0;enumerate=0;moveCells=0;treeMoving=0;resizeHeight=1;resizeWidth=1;fixDash=1;absoluteArcSize=0;textShadow=1;labelBorderColor=none;labelBackgroundColor=none;fontSize=14;verticalAlign=middle;fillColor=#f8cecc;strokeColor=#b85450;gradientColor=#ea6b66;gradientDirection=radial;glass=0;shadow=1;rounded=0;swimlaneLine=1;" parent="1" vertex="1">
          <mxGeometry x="40" y="1010" width="190" height="240" as="geometry" />
        </mxCell>
        <mxCell id="6J5hbu4WQA81EiAuZpl6-213" value="&lt;u&gt;id&lt;/u&gt;" style="text;strokeColor=#b85450;fillColor=#f8cecc;align=center;verticalAlign=middle;spacingLeft=4;spacingRight=4;overflow=hidden;points=[[0,0.5],[1,0.5]];portConstraint=eastwest;rotatable=0;whiteSpace=wrap;html=1;glass=0;rounded=0;shadow=0;fillStyle=auto;gradientColor=none;fontStyle=0;horizontal=1;" parent="6J5hbu4WQA81EiAuZpl6-212" vertex="1">
          <mxGeometry y="30" width="190" height="30" as="geometry" />
        </mxCell>
        <mxCell id="6J5hbu4WQA81EiAuZpl6-214" value="user_id (FK)" style="text;strokeColor=#b85450;fillColor=#f8cecc;align=center;verticalAlign=middle;spacingLeft=4;spacingRight=4;overflow=hidden;points=[[0,0.5],[1,0.5]];portConstraint=eastwest;rotatable=0;whiteSpace=wrap;html=1;fontStyle=0;horizontal=1;" parent="6J5hbu4WQA81EiAuZpl6-212" vertex="1">
          <mxGeometry y="60" width="190" height="30" as="geometry" />
        </mxCell>
        <mxCell id="6J5hbu4WQA81EiAuZpl6-220" value="status" style="text;strokeColor=#b85450;fillColor=#f8cecc;align=center;verticalAlign=middle;spacingLeft=4;spacingRight=4;overflow=hidden;points=[[0,0.5],[1,0.5]];portConstraint=eastwest;rotatable=0;whiteSpace=wrap;html=1;fontStyle=0;horizontal=1;" parent="6J5hbu4WQA81EiAuZpl6-212" vertex="1">
          <mxGeometry y="90" width="190" height="30" as="geometry" />
        </mxCell>
        <mxCell id="6J5hbu4WQA81EiAuZpl6-221" value="total_price" style="text;strokeColor=#b85450;fillColor=#f8cecc;align=center;verticalAlign=middle;spacingLeft=4;spacingRight=4;overflow=hidden;points=[[0,0.5],[1,0.5]];portConstraint=eastwest;rotatable=0;whiteSpace=wrap;html=1;fontStyle=0;horizontal=1;" parent="6J5hbu4WQA81EiAuZpl6-212" vertex="1">
          <mxGeometry y="120" width="190" height="30" as="geometry" />
        </mxCell>
        <mxCell id="6J5hbu4WQA81EiAuZpl6-222" value="note" style="text;strokeColor=#b85450;fillColor=#f8cecc;align=center;verticalAlign=middle;spacingLeft=4;spacingRight=4;overflow=hidden;points=[[0,0.5],[1,0.5]];portConstraint=eastwest;rotatable=0;whiteSpace=wrap;html=1;fontStyle=0;horizontal=1;" parent="6J5hbu4WQA81EiAuZpl6-212" vertex="1">
          <mxGeometry y="150" width="190" height="30" as="geometry" />
        </mxCell>
        <mxCell id="6J5hbu4WQA81EiAuZpl6-246" value="room_id (FK)" style="text;strokeColor=#b85450;fillColor=#f8cecc;align=center;verticalAlign=middle;spacingLeft=4;spacingRight=4;overflow=hidden;points=[[0,0.5],[1,0.5]];portConstraint=eastwest;rotatable=0;whiteSpace=wrap;html=1;fontStyle=0;horizontal=1;" parent="6J5hbu4WQA81EiAuZpl6-212" vertex="1">
          <mxGeometry y="180" width="190" height="30" as="geometry" />
        </mxCell>
        <mxCell id="6J5hbu4WQA81EiAuZpl6-248" value="created_at" style="text;strokeColor=#b85450;fillColor=#f8cecc;align=center;verticalAlign=middle;spacingLeft=4;spacingRight=4;overflow=hidden;points=[[0,0.5],[1,0.5]];portConstraint=eastwest;rotatable=0;whiteSpace=wrap;html=1;fontStyle=0;horizontal=1;" parent="6J5hbu4WQA81EiAuZpl6-212" vertex="1">
          <mxGeometry y="210" width="190" height="30" as="geometry" />
        </mxCell>
        <mxCell id="6J5hbu4WQA81EiAuZpl6-229" value="Order_Product" style="swimlane;fontStyle=1;childLayout=stackLayout;horizontal=1;startSize=30;horizontalStack=0;resizeParent=1;resizeParentMax=0;resizeLast=0;collapsible=1;marginBottom=0;whiteSpace=wrap;html=1;linecap=round;linejoin=round;comic=0;enumerate=0;moveCells=0;treeMoving=0;resizeHeight=1;resizeWidth=1;fixDash=1;absoluteArcSize=0;textShadow=1;labelBorderColor=none;labelBackgroundColor=none;fontSize=14;verticalAlign=middle;fillColor=#e6d0de;strokeColor=#996185;gradientColor=#d5739d;gradientDirection=radial;glass=0;shadow=1;rounded=0;swimlaneLine=1;" parent="1" vertex="1">
          <mxGeometry x="330" y="790" width="190" height="180" as="geometry" />
        </mxCell>
        <mxCell id="6J5hbu4WQA81EiAuZpl6-230" value="&lt;u&gt;id&lt;/u&gt;" style="text;strokeColor=#b85450;fillColor=#f8cecc;align=center;verticalAlign=middle;spacingLeft=4;spacingRight=4;overflow=hidden;points=[[0,0.5],[1,0.5]];portConstraint=eastwest;rotatable=0;whiteSpace=wrap;html=1;glass=0;rounded=0;shadow=0;fillStyle=auto;gradientColor=none;fontStyle=0;horizontal=1;" parent="6J5hbu4WQA81EiAuZpl6-229" vertex="1">
          <mxGeometry y="30" width="190" height="30" as="geometry" />
        </mxCell>
        <mxCell id="6J5hbu4WQA81EiAuZpl6-231" value="order_id (FK)" style="text;strokeColor=#b85450;fillColor=#f8cecc;align=center;verticalAlign=middle;spacingLeft=4;spacingRight=4;overflow=hidden;points=[[0,0.5],[1,0.5]];portConstraint=eastwest;rotatable=0;whiteSpace=wrap;html=1;fontStyle=0;horizontal=1;" parent="6J5hbu4WQA81EiAuZpl6-229" vertex="1">
          <mxGeometry y="60" width="190" height="30" as="geometry" />
        </mxCell>
        <mxCell id="6J5hbu4WQA81EiAuZpl6-232" value="product_id (FK)" style="text;strokeColor=#b85450;fillColor=#f8cecc;align=center;verticalAlign=middle;spacingLeft=4;spacingRight=4;overflow=hidden;points=[[0,0.5],[1,0.5]];portConstraint=eastwest;rotatable=0;whiteSpace=wrap;html=1;fontStyle=0;horizontal=1;" parent="6J5hbu4WQA81EiAuZpl6-229" vertex="1">
          <mxGeometry y="90" width="190" height="30" as="geometry" />
        </mxCell>
        <mxCell id="6J5hbu4WQA81EiAuZpl6-241" value="quantity" style="text;strokeColor=#b85450;fillColor=#f8cecc;align=center;verticalAlign=middle;spacingLeft=4;spacingRight=4;overflow=hidden;points=[[0,0.5],[1,0.5]];portConstraint=eastwest;rotatable=0;whiteSpace=wrap;html=1;fontStyle=0;horizontal=1;" parent="6J5hbu4WQA81EiAuZpl6-229" vertex="1">
          <mxGeometry y="120" width="190" height="30" as="geometry" />
        </mxCell>
        <mxCell id="6J5hbu4WQA81EiAuZpl6-242" value="price" style="text;strokeColor=#b85450;fillColor=#f8cecc;align=center;verticalAlign=middle;spacingLeft=4;spacingRight=4;overflow=hidden;points=[[0,0.5],[1,0.5]];portConstraint=eastwest;rotatable=0;whiteSpace=wrap;html=1;fontStyle=0;horizontal=1;" parent="6J5hbu4WQA81EiAuZpl6-229" vertex="1">
          <mxGeometry y="150" width="190" height="30" as="geometry" />
        </mxCell>
        <mxCell id="6J5hbu4WQA81EiAuZpl6-245" style="edgeStyle=orthogonalEdgeStyle;rounded=0;orthogonalLoop=1;jettySize=auto;html=1;fontFamily=Helvetica;fontSize=12;fontColor=default;fontStyle=1;labelBorderColor=none;labelBackgroundColor=none;curved=1;strokeWidth=2;fillColor=#0050ef;strokeColor=#000000;" parent="1" source="6J5hbu4WQA81EiAuZpl6-194" target="6J5hbu4WQA81EiAuZpl6-232" edge="1">
          <mxGeometry relative="1" as="geometry" />
        </mxCell>
        <mxCell id="6J5hbu4WQA81EiAuZpl6-251" value="Payment" style="swimlane;fontStyle=1;childLayout=stackLayout;horizontal=1;startSize=30;horizontalStack=0;resizeParent=1;resizeParentMax=0;resizeLast=0;collapsible=1;marginBottom=0;whiteSpace=wrap;html=1;linecap=round;linejoin=round;comic=0;enumerate=0;moveCells=0;treeMoving=0;resizeHeight=1;resizeWidth=1;fixDash=1;absoluteArcSize=0;textShadow=1;labelBorderColor=none;labelBackgroundColor=none;fontSize=14;verticalAlign=middle;fillColor=#f5f5f5;strokeColor=#666666;gradientColor=#b3b3b3;gradientDirection=radial;glass=0;shadow=1;rounded=0;swimlaneLine=1;" parent="1" vertex="1">
          <mxGeometry x="330" y="1040" width="190" height="210" as="geometry" />
        </mxCell>
        <mxCell id="6J5hbu4WQA81EiAuZpl6-252" value="&lt;u&gt;id&lt;/u&gt;" style="text;strokeColor=#b85450;fillColor=#f8cecc;align=center;verticalAlign=middle;spacingLeft=4;spacingRight=4;overflow=hidden;points=[[0,0.5],[1,0.5]];portConstraint=eastwest;rotatable=0;whiteSpace=wrap;html=1;glass=0;rounded=0;shadow=0;fillStyle=auto;gradientColor=none;fontStyle=0;horizontal=1;" parent="6J5hbu4WQA81EiAuZpl6-251" vertex="1">
          <mxGeometry y="30" width="190" height="30" as="geometry" />
        </mxCell>
        <mxCell id="6J5hbu4WQA81EiAuZpl6-253" value="order_id (FK)" style="text;strokeColor=#b85450;fillColor=#f8cecc;align=center;verticalAlign=middle;spacingLeft=4;spacingRight=4;overflow=hidden;points=[[0,0.5],[1,0.5]];portConstraint=eastwest;rotatable=0;whiteSpace=wrap;html=1;fontStyle=0;horizontal=1;" parent="6J5hbu4WQA81EiAuZpl6-251" vertex="1">
          <mxGeometry y="60" width="190" height="30" as="geometry" />
        </mxCell>
        <mxCell id="6J5hbu4WQA81EiAuZpl6-254" value="amount" style="text;strokeColor=#b85450;fillColor=#f8cecc;align=center;verticalAlign=middle;spacingLeft=4;spacingRight=4;overflow=hidden;points=[[0,0.5],[1,0.5]];portConstraint=eastwest;rotatable=0;whiteSpace=wrap;html=1;fontStyle=0;horizontal=1;" parent="6J5hbu4WQA81EiAuZpl6-251" vertex="1">
          <mxGeometry y="90" width="190" height="30" as="geometry" />
        </mxCell>
        <mxCell id="6J5hbu4WQA81EiAuZpl6-255" value="method" style="text;strokeColor=#b85450;fillColor=#f8cecc;align=center;verticalAlign=middle;spacingLeft=4;spacingRight=4;overflow=hidden;points=[[0,0.5],[1,0.5]];portConstraint=eastwest;rotatable=0;whiteSpace=wrap;html=1;fontStyle=0;horizontal=1;" parent="6J5hbu4WQA81EiAuZpl6-251" vertex="1">
          <mxGeometry y="120" width="190" height="30" as="geometry" />
        </mxCell>
        <mxCell id="6J5hbu4WQA81EiAuZpl6-256" value="status" style="text;strokeColor=#b85450;fillColor=#f8cecc;align=center;verticalAlign=middle;spacingLeft=4;spacingRight=4;overflow=hidden;points=[[0,0.5],[1,0.5]];portConstraint=eastwest;rotatable=0;whiteSpace=wrap;html=1;fontStyle=0;horizontal=1;" parent="6J5hbu4WQA81EiAuZpl6-251" vertex="1">
          <mxGeometry y="150" width="190" height="30" as="geometry" />
        </mxCell>
        <mxCell id="6J5hbu4WQA81EiAuZpl6-258" value="made_at" style="text;strokeColor=#b85450;fillColor=#f8cecc;align=center;verticalAlign=middle;spacingLeft=4;spacingRight=4;overflow=hidden;points=[[0,0.5],[1,0.5]];portConstraint=eastwest;rotatable=0;whiteSpace=wrap;html=1;fontStyle=0;horizontal=1;" parent="6J5hbu4WQA81EiAuZpl6-251" vertex="1">
          <mxGeometry y="180" width="190" height="30" as="geometry" />
        </mxCell>
        <mxCell id="6J5hbu4WQA81EiAuZpl6-257" style="edgeStyle=orthogonalEdgeStyle;rounded=0;orthogonalLoop=1;jettySize=auto;html=1;exitX=1;exitY=0.5;exitDx=0;exitDy=0;entryX=0;entryY=0.5;entryDx=0;entryDy=0;fontFamily=Helvetica;fontSize=12;fontColor=default;fontStyle=1;labelBorderColor=none;labelBackgroundColor=none;curved=1;fillColor=#d80073;strokeColor=#A50040;strokeWidth=2;" parent="1" source="6J5hbu4WQA81EiAuZpl6-213" target="6J5hbu4WQA81EiAuZpl6-253" edge="1">
          <mxGeometry relative="1" as="geometry" />
        </mxCell>
        <mxCell id="6J5hbu4WQA81EiAuZpl6-259" value="Wallet_Transaction" style="swimlane;fontStyle=1;childLayout=stackLayout;horizontal=1;startSize=30;horizontalStack=0;resizeParent=1;resizeParentMax=0;resizeLast=0;collapsible=1;marginBottom=0;whiteSpace=wrap;html=1;linecap=round;linejoin=round;comic=0;enumerate=0;moveCells=0;treeMoving=0;resizeHeight=1;resizeWidth=1;fixDash=1;absoluteArcSize=0;textShadow=1;labelBorderColor=none;labelBackgroundColor=none;fontSize=14;verticalAlign=middle;fillColor=#f5f5f5;strokeColor=#666666;gradientDirection=radial;glass=0;shadow=1;rounded=0;swimlaneLine=1;gradientColor=#b3b3b3;" parent="1" vertex="1">
          <mxGeometry x="330" y="460" width="190" height="240" as="geometry" />
        </mxCell>
        <mxCell id="6J5hbu4WQA81EiAuZpl6-260" value="&lt;u&gt;id&lt;/u&gt;" style="text;strokeColor=#b85450;fillColor=#f8cecc;align=center;verticalAlign=middle;spacingLeft=4;spacingRight=4;overflow=hidden;points=[[0,0.5],[1,0.5]];portConstraint=eastwest;rotatable=0;whiteSpace=wrap;html=1;glass=0;rounded=0;shadow=0;fillStyle=auto;gradientColor=none;fontStyle=0;horizontal=1;" parent="6J5hbu4WQA81EiAuZpl6-259" vertex="1">
          <mxGeometry y="30" width="190" height="30" as="geometry" />
        </mxCell>
        <mxCell id="6J5hbu4WQA81EiAuZpl6-261" value="user_id (FK)" style="text;strokeColor=#b85450;fillColor=#f8cecc;align=center;verticalAlign=middle;spacingLeft=4;spacingRight=4;overflow=hidden;points=[[0,0.5],[1,0.5]];portConstraint=eastwest;rotatable=0;whiteSpace=wrap;html=1;fontStyle=0;horizontal=1;" parent="6J5hbu4WQA81EiAuZpl6-259" vertex="1">
          <mxGeometry y="60" width="190" height="30" as="geometry" />
        </mxCell>
        <mxCell id="6J5hbu4WQA81EiAuZpl6-262" value="type" style="text;strokeColor=#b85450;fillColor=#f8cecc;align=center;verticalAlign=middle;spacingLeft=4;spacingRight=4;overflow=hidden;points=[[0,0.5],[1,0.5]];portConstraint=eastwest;rotatable=0;whiteSpace=wrap;html=1;fontStyle=0;horizontal=1;" parent="6J5hbu4WQA81EiAuZpl6-259" vertex="1">
          <mxGeometry y="90" width="190" height="30" as="geometry" />
        </mxCell>
        <mxCell id="6J5hbu4WQA81EiAuZpl6-263" value="amount" style="text;strokeColor=#b85450;fillColor=#f8cecc;align=center;verticalAlign=middle;spacingLeft=4;spacingRight=4;overflow=hidden;points=[[0,0.5],[1,0.5]];portConstraint=eastwest;rotatable=0;whiteSpace=wrap;html=1;fontStyle=0;horizontal=1;" parent="6J5hbu4WQA81EiAuZpl6-259" vertex="1">
          <mxGeometry y="120" width="190" height="30" as="geometry" />
        </mxCell>
        <mxCell id="6J5hbu4WQA81EiAuZpl6-264" value="balance_before" style="text;strokeColor=#b85450;fillColor=#f8cecc;align=center;verticalAlign=middle;spacingLeft=4;spacingRight=4;overflow=hidden;points=[[0,0.5],[1,0.5]];portConstraint=eastwest;rotatable=0;whiteSpace=wrap;html=1;fontStyle=0;horizontal=1;" parent="6J5hbu4WQA81EiAuZpl6-259" vertex="1">
          <mxGeometry y="150" width="190" height="30" as="geometry" />
        </mxCell>
        <mxCell id="6J5hbu4WQA81EiAuZpl6-268" value="balance_after" style="text;strokeColor=#b85450;fillColor=#f8cecc;align=center;verticalAlign=middle;spacingLeft=4;spacingRight=4;overflow=hidden;points=[[0,0.5],[1,0.5]];portConstraint=eastwest;rotatable=0;whiteSpace=wrap;html=1;fontStyle=0;horizontal=1;" parent="6J5hbu4WQA81EiAuZpl6-259" vertex="1">
          <mxGeometry y="180" width="190" height="30" as="geometry" />
        </mxCell>
        <mxCell id="6J5hbu4WQA81EiAuZpl6-269" value="made_at" style="text;strokeColor=#b85450;fillColor=#f8cecc;align=center;verticalAlign=middle;spacingLeft=4;spacingRight=4;overflow=hidden;points=[[0,0.5],[1,0.5]];portConstraint=eastwest;rotatable=0;whiteSpace=wrap;html=1;fontStyle=0;horizontal=1;" parent="6J5hbu4WQA81EiAuZpl6-259" vertex="1">
          <mxGeometry y="210" width="190" height="30" as="geometry" />
        </mxCell>
        <mxCell id="6J5hbu4WQA81EiAuZpl6-266" style="edgeStyle=orthogonalEdgeStyle;rounded=0;hachureGap=4;orthogonalLoop=1;jettySize=auto;html=1;fontFamily=Architects Daughter;fontSource=https%3A%2F%2Ffonts.googleapis.com%2Fcss%3Ffamily%3DArchitects%2BDaughter;fillColor=#f8cecc;strokeColor=#b85450;curved=1;strokeWidth=2;gradientColor=#ea6b66;" parent="1" source="6J5hbu4WQA81EiAuZpl6-141" target="6J5hbu4WQA81EiAuZpl6-261" edge="1">
          <mxGeometry relative="1" as="geometry">
            <Array as="points">
              <mxPoint x="310" y="355" />
              <mxPoint x="310" y="535" />
            </Array>
          </mxGeometry>
        </mxCell>
        <mxCell id="qRMEec7_QLGQIkpOmc_A-2" style="edgeStyle=orthogonalEdgeStyle;rounded=0;orthogonalLoop=1;jettySize=auto;html=1;curved=1;strokeWidth=2;fillColor=#f8cecc;strokeColor=#b85450;" edge="1" parent="1" source="6J5hbu4WQA81EiAuZpl6-141" target="6J5hbu4WQA81EiAuZpl6-214">
          <mxGeometry relative="1" as="geometry">
            <Array as="points">
              <mxPoint x="270" y="355" />
              <mxPoint x="270" y="1085" />
            </Array>
          </mxGeometry>
        </mxCell>
      </root>
    </mxGraphModel>
  </diagram>
</mxfile>
